<svg xmlns="http://www.w3.org/2000/svg" aria-label="Vite logo" viewBox="0 0 410 404">
  <path fill="#41D1FF" d="M399.641 59.524 215.643 388.545c-3.71 6.637-13.236 6.653-16.968.03L10.39 59.544c-4.104-7.177 2.019-15.899 10.06-14.341l184.235 35.72a9.72 9.72 0 0 0 3.715-.006l181.124-35.673c8.03-1.58 14.18 7.126 10.117 14.28Z"/>
  <path fill="#BD34FE" d="M292.965.168 156.412 26.91a4.793 4.793 0 0 0-3.916 3.777l-8.714 47.44a4.793 4.793 0 0 0 5.676 5.575l37.985-7.409a4.793 4.793 0 0 1 5.738 5.974l-11.281 55.276a4.793 4.793 0 0 0 6.43 5.377l23.457-9.31a4.793 4.793 0 0 1 6.268 5.669l-17.922 86.947c-1.122 5.443 6.114 8.411 9.15 3.754l2.028-3.11 111.245-222.02c2.34-4.67-1.702-10.02-6.886-9.006Z"/>
</svg>
